<svg xmlns="http://www.w3.org/2000/svg" width="520" height="420" viewBox="0 0 520 420">
  <ellipse cx="260" cy="225" rx="240" ry="180" fill="#eef7ee"/>
  <rect x="150" y="80" width="220" height="280" rx="22" fill="#2c3e50"/>
  <rect x="166" y="100" width="188" height="240" rx="12" fill="#fff"/>
  <rect x="186" y="124" width="64" height="44" rx="8" fill="#e6e6e6"/>
  <rect x="186" y="180" width="148" height="10" rx="5" fill="#e0e0e0"/>
  <rect x="186" y="200" width="110" height="10" rx="5" fill="#e0e0e0"/>
  <rect x="186" y="236" width="64" height="44" rx="8" fill="#caebca"/>
  <g transform="translate(196,244) scale(.30)"><rect x="10" y="30" width="80" height="32" rx="8" fill="#3f9e3f"/><rect x="78" y="10" width="40" height="52" rx="8" fill="#1f6b2d"/><circle cx="36" cy="74" r="18" fill="#2b2b2b"/><circle cx="98" cy="70" r="24" fill="#2b2b2b"/></g>
  <rect x="186" y="292" width="148" height="10" rx="5" fill="#e0e0e0"/>
  <path d="M330 320 q60 30 60 90 l-50 10 q-30 -50 -10 -100z" fill="#f0b27a"/>
  <path d="M300 270 l70 64 -28 30 -70 -64z" fill="#f0b27a"/>
  <path d="M260 330 q40 -20 70 6 l-18 60 q-50 10 -70 -20z" fill="#4dbc4d"/>
</svg>