<svg xmlns="http://www.w3.org/2000/svg" width="560" height="460" viewBox="0 0 560 460">
  <ellipse cx="280" cy="240" rx="260" ry="180" fill="#eef7ee"/>
  <rect x="90" y="150" width="240" height="160" rx="14" fill="#fff" stroke="#e0e0e0" stroke-width="4"/>
  <rect x="110" y="174" width="90" height="10" rx="5" fill="#e0e0e0"/>
  <rect x="110" y="196" width="200" height="10" rx="5" fill="#e6e6e6"/>
  <g fill="#4dbc4d"><rect x="116" y="250" width="26" height="44"/><rect x="156" y="226" width="26" height="68"/><rect x="196" y="206" width="26" height="88"/><rect x="236" y="240" width="26" height="54" fill="#f6c34f"/><rect x="276" y="216" width="26" height="78" fill="#e8762d"/></g>
  <path d="M250 120 L320 60 L390 130 q-34 60 -140 60z" fill="#4dbc4d" opacity="0"/>
  <path d="M150 120 q90 -60 180 -10" stroke="#4dbc4d" stroke-width="12" fill="none" stroke-linecap="round"/>
  <polygon points="338,98 346,128 314,122" fill="#4dbc4d"/>
  <g transform="translate(340,200)">
    <circle cx="46" cy="26" r="26" fill="#f0b27a"/>
    <path d="M20 50 q26 -16 52 0 l-8 84 h-38z" fill="#2f7d33"/>
    <path d="M30 132 q-8 50 12 80 l20 -4 q-10 -36 2 -76z" fill="#2c3e50"/>
    <rect x="80" y="60" width="70" height="50" rx="8" fill="#f6c34f"/>
    <circle cx="115" cy="85" r="12" fill="#b98d18"/>
  </g>
  <g fill="#f6c34f"><circle cx="130" cy="370" r="22"/><circle cx="172" cy="382" r="22"/><circle cx="214" cy="370" r="22"/></g>
  <text x="120" y="378" font-family="Arial" font-size="22" fill="#a07908">€</text>
  <text x="162" y="390" font-family="Arial" font-size="22" fill="#a07908">€</text>
  <text x="204" y="378" font-family="Arial" font-size="22" fill="#a07908">€</text>
</svg>