<svg xmlns="http://www.w3.org/2000/svg" width="760" height="460" viewBox="0 0 760 460">
  <ellipse cx="380" cy="240" rx="330" ry="180" fill="#eef7ee"/>
  <rect x="120" y="220" width="180" height="120" rx="18" fill="#b98d4f"/>
  <rect x="138" y="240" width="144" height="80" rx="10" fill="#a3793e" stroke="#8a6531" stroke-width="4" stroke-dasharray="10 8"/>
  <circle cx="282" cy="280" r="16" fill="#6e5126"/>
  <circle cx="560" cy="320" r="58" fill="#f6c34f"/>
  <text x="540" y="340" font-family="Arial" font-size="52" fill="#b98d18">€</text>
  <g transform="translate(430,120)">
    <circle cx="40" cy="20" r="26" fill="#f0b27a"/>
    <path d="M14 44 q26 -18 52 0 l-6 70 h-40z" fill="#4dbc4d"/>
    <path d="M60 70 q30 6 44 -18" stroke="#f0b27a" stroke-width="14" fill="none" stroke-linecap="round"/>
    <rect x="96" y="20" width="26" height="40" rx="6" fill="#f6c34f"/>
    <path d="M30 112 q-10 60 16 96 l22 -6 q-14 -40 0 -88z" fill="#2c3e50"/>
  </g>
  <g transform="translate(560,90) scale(.8)"><path d="M40 60 q0 -36 36 -36 q10 -18 32 -12 q20 -16 40 0 q30 -6 34 24 q20 10 8 34z" fill="#fff"/></g>
  <g transform="translate(120,110)"><circle cx="30" cy="24" r="18" fill="#f0b27a"/><path d="M12 40 q18 -12 36 0 l-4 48 h-28z" fill="#c43b2e"/><circle cx="74" cy="38" r="12" fill="#f0b27a"/><path d="M62 48 q12 -8 24 0 l-3 34 h-18z" fill="#2e6fc4"/></g>
  <rect x="540" y="200" width="120" height="80" rx="12" fill="#7db8dd" opacity=".85"/>
  <path d="M556 264 l22 -26 18 14 26 -34" stroke="#fff" stroke-width="8" fill="none" stroke-linecap="round"/>
</svg>