<svg xmlns="http://www.w3.org/2000/svg" width="640" height="360" viewBox="0 0 640 360">
  <defs><linearGradient id="sky6" x1="0" y1="0" x2="0" y2="1">
    <stop offset="0" stop-color="#dfeef7"/><stop offset="1" stop-color="#f4f8f4"/></linearGradient></defs>
  <rect width="640" height="360" fill="url(#sky6)"/>
  <rect y="276" width="640" height="84" fill="#e7e2d6"/>
  <rect y="270" width="640" height="10" fill="#d8d2c2"/>
  <rect x="110" y="120" width="420" height="22" rx="10" fill="#e8762d"/>
  <rect x="130" y="160" width="380" height="16" rx="8" fill="#e8762d"/>
  <g stroke="#9e4a14" stroke-width="10">
    <line x1="150" y1="142" x2="150" y2="160"/><line x1="320" y1="142" x2="320" y2="160"/><line x1="490" y1="142" x2="490" y2="160"/>
  </g>
  <g stroke="#3a3a3a" stroke-width="9">
    <path d="M150 176 q-6 40 -22 56" fill="none"/><path d="M235 176 q-6 40 -22 56" fill="none"/>
    <path d="M320 176 q-6 40 -22 56" fill="none"/><path d="M405 176 q-6 40 -22 56" fill="none"/>
    <path d="M490 176 q-6 40 -22 56" fill="none"/>
  </g>
  <g fill="#5b6770">
    <polygon points="118,232 138,232 128,258"/><polygon points="203,232 223,232 213,258"/>
    <polygon points="288,232 308,232 298,258"/><polygon points="373,232 393,232 383,258"/>
    <polygon points="458,232 478,232 468,258"/>
  </g>
  <circle cx="200" cy="262" r="30" fill="#2b2b2b"/><circle cx="200" cy="262" r="17" fill="#777"/>
  <circle cx="440" cy="262" r="30" fill="#2b2b2b"/><circle cx="440" cy="262" r="17" fill="#777"/>
  <rect x="48" y="120" width="62" height="14" rx="7" fill="#3a3a3a"/>
  <circle cx="46" cy="127" r="10" fill="#555"/>
</svg>