<svg xmlns="http://www.w3.org/2000/svg" width="600" height="680" viewBox="0 0 600 680" preserveAspectRatio="xMidYMid slice">
  <defs><linearGradient id="ng" x1="0" y1="0" x2="1" y2="1">
    <stop offset="0" stop-color="#5d9636"/><stop offset="1" stop-color="#2f5d1c"/></linearGradient></defs>
  <rect width="600" height="680" fill="url(#ng)"/>
  <g stroke="#fff" stroke-width="7" opacity=".55" fill="none"><path d="M80 560 q-8 -90 12 -170"/><circle cx="92" cy="380" r="16"/><path d="M170 560 q-8 -90 12 -170"/><circle cx="182" cy="380" r="16"/><path d="M260 560 q-8 -90 12 -170"/><circle cx="272" cy="380" r="16"/><path d="M350 560 q-8 -90 12 -170"/><circle cx="362" cy="380" r="16"/><path d="M440 560 q-8 -90 12 -170"/><circle cx="452" cy="380" r="16"/><path d="M530 560 q-8 -90 12 -170"/><circle cx="542" cy="380" r="16"/></g>
</svg>