<svg xmlns="http://www.w3.org/2000/svg" width="640" height="400" viewBox="0 0 640 400" preserveAspectRatio="xMidYMid slice">
  <defs><linearGradient id="pf" x1="0" y1="0" x2="0" y2="1">
    <stop offset="0" stop-color="#a8c8e0"/><stop offset=".6" stop-color="#d8e4d2"/><stop offset="1" stop-color="#c2b98a"/></linearGradient></defs>
  <rect width="640" height="400" fill="url(#pf)"/>
  <rect y="300" width="640" height="100" fill="#b3a76e"/>
  <g transform="translate(40,180) scale(.55)"><rect x="60" y="40" width="150" height="56" rx="10" fill="#c43b2e"/><rect x="196" y="10" width="78" height="86" rx="10" fill="#7d1f16"/><rect x="204" y="20" width="60" height="48" rx="7" fill="#cfe3ef"/><circle cx="110" cy="132" r="36" fill="#222"/><circle cx="252" cy="120" r="52" fill="#222"/><circle cx="252" cy="120" r="30" fill="#666"/><circle cx="110" cy="132" r="20" fill="#666"/></g>
  <g transform="translate(230,160) scale(.62)"><rect x="60" y="40" width="150" height="56" rx="10" fill="#2e6fc4"/><rect x="196" y="10" width="78" height="86" rx="10" fill="#173f7d"/><rect x="204" y="20" width="60" height="48" rx="7" fill="#cfe3ef"/><circle cx="110" cy="132" r="36" fill="#222"/><circle cx="252" cy="120" r="52" fill="#222"/><circle cx="252" cy="120" r="30" fill="#666"/><circle cx="110" cy="132" r="20" fill="#666"/></g>
  <g transform="translate(430,140) scale(.7)"><rect x="60" y="40" width="150" height="56" rx="10" fill="#3f9e3f"/><rect x="196" y="10" width="78" height="86" rx="10" fill="#1f6b2d"/><rect x="204" y="20" width="60" height="48" rx="7" fill="#cfe3ef"/><circle cx="110" cy="132" r="36" fill="#222"/><circle cx="252" cy="120" r="52" fill="#222"/><circle cx="252" cy="120" r="30" fill="#666"/><circle cx="110" cy="132" r="20" fill="#666"/></g>
</svg>