<svg xmlns="http://www.w3.org/2000/svg" width="640" height="360" viewBox="0 0 640 360">
  <defs>
    <linearGradient id="sky" x1="0" y1="0" x2="0" y2="1">
      <stop offset="0" stop-color="#dfeef7"/><stop offset="1" stop-color="#f4f8f4"/>
    </linearGradient>
  </defs>
  <rect width="640" height="360" fill="url(#sky)"/>
  <rect y="268" width="640" height="92" fill="#e7e2d6"/>
  <rect y="262" width="640" height="10" fill="#d8d2c2"/>
  <g>
    <rect x="150" y="118" width="210" height="74" rx="14" fill="#9ec42e"/>
    <rect x="150" y="150" width="210" height="42" rx="10" fill="#5f7d17" opacity=".35"/>
    <rect x="118" y="132" width="52" height="60" rx="10" fill="#9ec42e"/>
    <rect x="126" y="142" width="36" height="26" rx="6" fill="#5f7d17" opacity=".5"/>
    <rect x="345" y="78" width="118" height="120" rx="14" fill="#5f7d17"/>
    <rect x="356" y="90" width="96" height="74" rx="10" fill="#cfe3ef"/>
    <rect x="398" y="90" width="8" height="74" fill="#5f7d17" opacity=".6"/>
    <rect x="345" y="190" width="150" height="34" rx="10" fill="#9ec42e"/>
    <rect x="176" y="96" width="26" height="26" rx="6" fill="#5f7d17"/>
    <rect x="183" y="58" width="12" height="44" rx="5" fill="#3a3a3a"/>
    <circle cx="216" cy="252" r="52" fill="#2b2b2b"/>
    <circle cx="216" cy="252" r="33" fill="#777"/>
    <circle cx="216" cy="252" r="14" fill="#9ec42e"/>
    <g stroke="#1d1d1d" stroke-width="9">
      <line x1="216" y1="200" x2="216" y2="212"/><line x1="216" y1="292" x2="216" y2="304"/>
      <line x1="164" y1="252" x2="176" y2="252"/><line x1="256" y1="252" x2="268" y2="252"/>
      <line x1="180" y1="216" x2="189" y2="225"/><line x1="243" y1="279" x2="252" y2="288"/>
      <line x1="252" y1="216" x2="243" y2="225"/><line x1="189" y1="279" x2="180" y2="288"/>
    </g>
    <circle cx="442" cy="234" r="74" fill="#2b2b2b"/>
    <circle cx="442" cy="234" r="48" fill="#777"/>
    <circle cx="442" cy="234" r="20" fill="#9ec42e"/>
    <g stroke="#1d1d1d" stroke-width="11">
      <line x1="442" y1="160" x2="442" y2="178"/><line x1="442" y1="290" x2="442" y2="308"/>
      <line x1="368" y1="234" x2="386" y2="234"/><line x1="498" y1="234" x2="516" y2="234"/>
      <line x1="390" y1="182" x2="403" y2="195"/><line x1="481" y1="273" x2="494" y2="286"/>
      <line x1="494" y1="182" x2="481" y2="195"/><line x1="403" y1="273" x2="390" y2="286"/>
    </g>
    <rect x="98" y="186" width="36" height="12" rx="6" fill="#3a3a3a"/>
    <rect x="92" y="192" width="14" height="40" rx="6" fill="#3a3a3a"/>
  </g>
</svg>